<svg xmlns="http://www.w3.org/2000/svg" viewBox="0 0 466.3 371.1" role="img" aria-label="Nine to Fine"><title>Nine to Fine</title><defs><linearGradient id="c" x1="0" y1="0" x2="0" y2="1"><stop offset="0" stop-color="#EFE6CE"/><stop offset="1" stop-color="#C6AC79"/></linearGradient></defs><g transform="matrix(0.3752,0,0,-0.3752,15.6,264.5)"><path fill="url(#c)" d="M119.8 108.6Q119.8 57.2 102.3 34.6Q84.8 12.0 40.8 12.0Q38.6 12.0 38.6 6.0Q38.6 0.0 40.8 0.0Q61.6 0.0 84.9 1.0Q108.2 2.0 133.4 2.0Q159.0 2.0 180.1 1.0Q201.2 0.0 220.8 0.0Q223.6 0.0 223.6 6.0Q223.6 12.0 220.8 12.0Q179.4 12.0 161.4 34.6Q143.4 57.2 143.4 108.6V553.2Q147.7 548.3 152.2 543.0L612.4 -14.0Q614.4 -15.0 619.3 -14.5Q624.2 -14.0 624.2 -11.8V515.4Q624.2 566.8 642.8 589.9Q661.4 613.0 703.8 613.0Q706.0 613.0 706.5 616.9Q706.8 613.0 708.6 613.0Q745.2 613.0 763.4 607.5Q781.6 602.0 787.8 587.5Q794.0 573.0 794.0 544.0V81.0Q794.0 52.0 787.7 37.0Q781.4 22.0 762.9 17.0Q744.4 12.0 707.2 12.0Q705.0 12.0 705.0 6.0Q705.0 0.0 707.2 0.0Q731.6 0.0 762.4 1.0Q793.2 2.0 826.0 2.0Q871.8 2.0 909.7 1.0Q947.6 0.0 980.0 0.0Q982.8 0.0 982.8 6.0Q982.8 12.0 980.0 12.0Q927.8 12.0 901.6 18.0Q875.4 24.0 867.0 39.5Q858.6 55.0 858.6 85.0V303.0H956.8Q1012.6 303.0 1036.0 283.9Q1059.4 264.8 1059.4 220.8Q1059.4 218.6 1065.4 218.6Q1071.4 218.6 1071.4 220.8Q1071.4 246.4 1070.4 268.4Q1069.4 290.4 1069.4 313.0Q1069.4 331.4 1069.9 347.9Q1070.4 364.4 1070.4 394.4Q1070.4 396.4 1064.4 396.4Q1058.4 396.4 1058.4 394.4Q1058.4 357.8 1036.0 340.8Q1013.6 323.8 960.2 323.8H858.6V543.0Q858.6 579.6 874.6 591.8Q890.6 604.0 939.8 604.0H1001.0Q1048.6 604.0 1077.8 574.9Q1107.0 545.8 1110.2 492.4Q1110.6 489.4 1116.0 489.6Q1121.4 489.8 1121.4 492.6L1119.4 616.0Q1119.4 625.0 1110.2 625.0H708.6Q706.8 625.0 706.5 621.1Q706.0 625.0 703.8 625.0Q684.2 625.0 660.6 623.5Q637.0 622.0 613.2 622.0Q587.6 622.0 566.5 623.5Q545.4 625.0 525.0 625.0Q523.0 625.0 523.0 619.0Q523.0 613.0 525.0 613.0Q566.4 613.0 583.6 589.9Q600.8 566.8 600.8 515.4V100.9L215.6 573.0Q192.4 602.0 187.1 613.5Q181.8 625.0 168.8 625.0Q160.8 625.0 145.0 624.0Q129.2 623.0 110.8 623.0Q96.0 623.0 77.4 624.0Q58.8 625.0 41.2 625.0Q38.4 625.0 38.4 619.0Q38.4 613.0 41.2 613.0Q65.4 613.0 91.6 598.5Q104.7 591.3 119.8 577.4Z"/></g><g transform="matrix(0.0706,0,0,-0.0706,28.9,340.1)"><path fill="#E7DBC4" d="M118.0 104.0V602.0L140.0 600.0V104.0Q140.0 53.0 157.0 32.5Q174.0 12.0 216.0 12.0Q219.0 12.0 219.0 6.0Q219.0 0.0 216.0 0.0Q197.0 0.0 176.5 1.0Q156.0 2.0 131.0 2.0Q107.0 2.0 85.0 1.0Q63.0 0.0 43.0 0.0Q41.0 0.0 41.0 6.0Q41.0 12.0 43.0 12.0Q87.0 12.0 102.5 32.5Q118.0 53.0 118.0 104.0ZM621.0 -11.0Q621.0 -13.0 616.0 -13.5Q611.0 -14.0 609.0 -13.0L157.0 543.0Q123.0 584.0 96.5 598.5Q70.0 613.0 46.0 613.0Q43.0 613.0 43.0 619.0Q43.0 625.0 46.0 625.0Q63.0 625.0 81.0 624.0Q99.0 623.0 113.0 623.0Q127.0 623.0 139.5 624.0Q152.0 625.0 158.0 625.0Q171.0 625.0 176.0 613.5Q181.0 602.0 204.0 573.0L613.0 65.0ZM621.0 520.0V-11.0L599.0 20.0V520.0Q599.0 571.0 583.0 592.0Q567.0 613.0 525.0 613.0Q523.0 613.0 523.0 619.0Q523.0 625.0 525.0 625.0Q545.0 625.0 565.5 623.5Q586.0 622.0 611.0 622.0Q634.0 622.0 657.0 623.5Q680.0 625.0 699.0 625.0Q702.0 625.0 702.0 619.0Q702.0 613.0 699.0 613.0Q656.0 613.0 638.5 592.0Q621.0 571.0 621.0 520.0ZM862.0 0.0Q860.0 0.0 860.0 6.0Q860.0 12.0 862.0 12.0Q903.0 12.0 915.5 25.0Q928.0 38.0 928.0 81.0V270.0Q928.0 306.0 921.0 322.5Q914.0 339.0 895.0 339.0Q886.0 339.0 874.5 335.5Q863.0 332.0 847.0 324.0Q843.0 323.0 840.5 328.5Q838.0 334.0 842.0 336.0L966.0 394.0Q969.0 395.0 970.0 395.0Q972.0 395.0 974.5 393.0Q977.0 391.0 977.0 388.0Q977.0 381.0 976.0 349.5Q975.0 318.0 975.0 271.0V81.0Q975.0 38.0 986.5 25.0Q998.0 12.0 1040.0 12.0Q1043.0 12.0 1043.0 6.0Q1043.0 0.0 1040.0 0.0Q1023.0 0.0 1000.0 1.0Q977.0 2.0 951.0 2.0Q926.0 2.0 903.0 1.0Q880.0 0.0 862.0 0.0ZM943.0 516.0Q924.0 516.0 913.5 526.0Q903.0 536.0 903.0 554.0Q903.0 572.0 913.5 582.0Q924.0 592.0 943.0 592.0Q961.0 592.0 971.0 582.0Q981.0 572.0 981.0 554.0Q981.0 516.0 943.0 516.0ZM1475.0 0.0Q1472.0 0.0 1472.0 6.0Q1472.0 12.0 1475.0 12.0Q1516.0 12.0 1528.0 25.0Q1540.0 38.0 1540.0 81.0V248.0Q1540.0 309.0 1517.0 337.0Q1494.0 365.0 1445.0 365.0Q1407.0 365.0 1367.5 340.0Q1328.0 315.0 1299.0 271.0L1295.0 283.0Q1342.0 345.0 1385.0 372.0Q1428.0 399.0 1472.0 399.0Q1527.0 399.0 1557.0 369.5Q1587.0 340.0 1587.0 278.0V81.0Q1587.0 38.0 1598.5 25.0Q1610.0 12.0 1652.0 12.0Q1655.0 12.0 1655.0 6.0Q1655.0 0.0 1652.0 0.0Q1635.0 0.0 1612.0 1.0Q1589.0 2.0 1564.0 2.0Q1539.0 2.0 1515.5 1.0Q1492.0 0.0 1475.0 0.0ZM1206.0 0.0Q1203.0 0.0 1203.0 6.0Q1203.0 12.0 1206.0 12.0Q1247.0 12.0 1259.0 25.0Q1271.0 38.0 1271.0 81.0V281.0Q1271.0 315.0 1263.0 330.5Q1255.0 346.0 1235.0 346.0Q1225.0 346.0 1211.0 342.0Q1197.0 338.0 1179.0 331.0Q1175.0 330.0 1172.5 335.0Q1170.0 340.0 1174.0 342.0L1285.0 394.0Q1287.0 395.0 1290.0 395.0Q1297.0 395.0 1307.5 374.5Q1318.0 354.0 1318.0 315.0V81.0Q1318.0 38.0 1329.5 25.0Q1341.0 12.0 1383.0 12.0Q1386.0 12.0 1386.0 6.0Q1386.0 0.0 1383.0 0.0Q1366.0 0.0 1343.0 1.0Q1320.0 2.0 1295.0 2.0Q1270.0 2.0 1246.5 1.0Q1223.0 0.0 1206.0 0.0ZM1976.0 -12.0Q1915.0 -12.0 1874.0 15.5Q1833.0 43.0 1812.5 87.0Q1792.0 131.0 1792.0 180.0Q1792.0 241.0 1820.0 289.5Q1848.0 338.0 1896.0 366.5Q1944.0 395.0 2004.0 395.0Q2057.0 395.0 2085.5 368.5Q2114.0 342.0 2114.0 296.0Q2114.0 285.0 2112.0 279.5Q2110.0 274.0 2102.0 274.0H2053.0Q2058.0 324.0 2034.5 349.5Q2011.0 375.0 1970.0 375.0Q1911.0 375.0 1880.0 333.0Q1849.0 291.0 1849.0 218.0Q1849.0 161.0 1867.5 116.5Q1886.0 72.0 1922.0 46.0Q1958.0 20.0 2008.0 20.0Q2034.0 20.0 2061.0 28.0Q2088.0 36.0 2112.0 54.0Q2114.0 56.0 2117.5 51.5Q2121.0 47.0 2119.0 44.0Q2084.0 14.0 2048.5 1.0Q2013.0 -12.0 1976.0 -12.0ZM1836.0 273.0 1835.0 284.0 2065.0 289.0V274.0ZM2743.0 -12.0Q2719.0 -12.0 2697.5 -4.5Q2676.0 3.0 2663.0 20.5Q2650.0 38.0 2650.0 68.0V306.0Q2650.0 331.0 2647.0 342.5Q2644.0 354.0 2633.0 357.5Q2622.0 361.0 2598.0 361.0Q2595.0 361.0 2595.0 367.0Q2595.0 373.0 2598.0 373.0Q2636.0 373.0 2659.5 394.0Q2683.0 415.0 2683.0 447.0Q2683.0 450.0 2690.5 450.0Q2698.0 450.0 2698.0 447.0V102.0Q2698.0 60.0 2718.5 39.5Q2739.0 19.0 2779.0 19.0Q2806.0 19.0 2826.5 27.5Q2847.0 36.0 2860.0 46.0Q2864.0 48.0 2867.0 43.5Q2870.0 39.0 2866.0 36.0Q2829.0 10.0 2801.0 -1.0Q2773.0 -12.0 2743.0 -12.0ZM2836.0 338.0Q2797.0 348.0 2761.5 350.5Q2726.0 353.0 2686.0 353.0V374.0Q2725.0 374.0 2761.5 377.0Q2798.0 380.0 2839.0 384.0Q2842.0 384.0 2844.0 377.5Q2846.0 371.0 2846.0 361.0Q2846.0 354.0 2843.0 345.5Q2840.0 337.0 2836.0 338.0ZM3203.0 -13.0Q3144.0 -13.0 3100.5 16.0Q3057.0 45.0 3033.5 93.5Q3010.0 142.0 3010.0 198.0Q3010.0 250.0 3029.0 288.0Q3048.0 326.0 3079.5 350.5Q3111.0 375.0 3148.0 387.0Q3185.0 399.0 3221.0 399.0Q3281.0 399.0 3324.0 369.0Q3367.0 339.0 3390.0 292.0Q3413.0 245.0 3413.0 193.0Q3413.0 129.0 3384.0 83.0Q3355.0 37.0 3307.5 12.0Q3260.0 -13.0 3203.0 -13.0ZM3231.0 5.0Q3287.0 5.0 3321.0 42.5Q3355.0 80.0 3355.0 167.0Q3355.0 228.0 3334.0 276.0Q3313.0 324.0 3275.5 352.0Q3238.0 380.0 3188.0 380.0Q3131.0 380.0 3099.0 340.5Q3067.0 301.0 3067.0 227.0Q3067.0 168.0 3087.5 117.0Q3108.0 66.0 3145.0 35.5Q3182.0 5.0 3231.0 5.0ZM3888.0 0.0Q3886.0 0.0 3886.0 6.0Q3886.0 12.0 3888.0 12.0Q3926.0 12.0 3945.0 17.0Q3964.0 22.0 3970.5 37.0Q3977.0 52.0 3977.0 81.0V544.0Q3977.0 573.0 3970.5 587.5Q3964.0 602.0 3945.0 607.5Q3926.0 613.0 3888.0 613.0Q3886.0 613.0 3886.0 619.0Q3886.0 625.0 3888.0 625.0H4284.0Q4293.0 625.0 4293.0 616.0L4295.0 495.0Q4295.0 492.0 4289.5 492.0Q4284.0 492.0 4284.0 495.0Q4284.0 547.0 4257.0 576.5Q4230.0 606.0 4186.0 606.0H4117.0Q4063.0 606.0 4046.5 594.0Q4030.0 582.0 4030.0 543.0V85.0Q4030.0 55.0 4038.5 39.5Q4047.0 24.0 4074.0 18.0Q4101.0 12.0 4155.0 12.0Q4158.0 12.0 4158.0 6.0Q4158.0 0.0 4155.0 0.0Q4123.0 0.0 4085.5 1.0Q4048.0 2.0 4004.0 2.0Q3972.0 2.0 3942.0 1.0Q3912.0 0.0 3888.0 0.0ZM4233.0 223.0Q4233.0 268.0 4211.5 286.0Q4190.0 304.0 4135.0 304.0H4005.0V323.0H4139.0Q4191.0 323.0 4211.5 339.0Q4232.0 355.0 4232.0 392.0Q4232.0 394.0 4238.0 394.0Q4244.0 394.0 4244.0 392.0Q4244.0 363.0 4243.5 347.0Q4243.0 331.0 4243.0 313.0Q4243.0 291.0 4244.0 269.5Q4245.0 248.0 4245.0 223.0Q4245.0 221.0 4239.0 221.0Q4233.0 221.0 4233.0 223.0ZM4487.0 0.0Q4485.0 0.0 4485.0 6.0Q4485.0 12.0 4487.0 12.0Q4528.0 12.0 4540.5 25.0Q4553.0 38.0 4553.0 81.0V270.0Q4553.0 306.0 4546.0 322.5Q4539.0 339.0 4520.0 339.0Q4511.0 339.0 4499.5 335.5Q4488.0 332.0 4472.0 324.0Q4468.0 323.0 4465.5 328.5Q4463.0 334.0 4467.0 336.0L4591.0 394.0Q4594.0 395.0 4595.0 395.0Q4597.0 395.0 4599.5 393.0Q4602.0 391.0 4602.0 388.0Q4602.0 381.0 4601.0 349.5Q4600.0 318.0 4600.0 271.0V81.0Q4600.0 38.0 4611.5 25.0Q4623.0 12.0 4665.0 12.0Q4668.0 12.0 4668.0 6.0Q4668.0 0.0 4665.0 0.0Q4648.0 0.0 4625.0 1.0Q4602.0 2.0 4576.0 2.0Q4551.0 2.0 4528.0 1.0Q4505.0 0.0 4487.0 0.0ZM4568.0 516.0Q4549.0 516.0 4538.5 526.0Q4528.0 536.0 4528.0 554.0Q4528.0 572.0 4538.5 582.0Q4549.0 592.0 4568.0 592.0Q4586.0 592.0 4596.0 582.0Q4606.0 572.0 4606.0 554.0Q4606.0 516.0 4568.0 516.0ZM5100.0 0.0Q5097.0 0.0 5097.0 6.0Q5097.0 12.0 5100.0 12.0Q5141.0 12.0 5153.0 25.0Q5165.0 38.0 5165.0 81.0V248.0Q5165.0 309.0 5142.0 337.0Q5119.0 365.0 5070.0 365.0Q5032.0 365.0 4992.5 340.0Q4953.0 315.0 4924.0 271.0L4920.0 283.0Q4967.0 345.0 5010.0 372.0Q5053.0 399.0 5097.0 399.0Q5152.0 399.0 5182.0 369.5Q5212.0 340.0 5212.0 278.0V81.0Q5212.0 38.0 5223.5 25.0Q5235.0 12.0 5277.0 12.0Q5280.0 12.0 5280.0 6.0Q5280.0 0.0 5277.0 0.0Q5260.0 0.0 5237.0 1.0Q5214.0 2.0 5189.0 2.0Q5164.0 2.0 5140.5 1.0Q5117.0 0.0 5100.0 0.0ZM4831.0 0.0Q4828.0 0.0 4828.0 6.0Q4828.0 12.0 4831.0 12.0Q4872.0 12.0 4884.0 25.0Q4896.0 38.0 4896.0 81.0V281.0Q4896.0 315.0 4888.0 330.5Q4880.0 346.0 4860.0 346.0Q4850.0 346.0 4836.0 342.0Q4822.0 338.0 4804.0 331.0Q4800.0 330.0 4797.5 335.0Q4795.0 340.0 4799.0 342.0L4910.0 394.0Q4912.0 395.0 4915.0 395.0Q4922.0 395.0 4932.5 374.5Q4943.0 354.0 4943.0 315.0V81.0Q4943.0 38.0 4954.5 25.0Q4966.0 12.0 5008.0 12.0Q5011.0 12.0 5011.0 6.0Q5011.0 0.0 5008.0 0.0Q4991.0 0.0 4968.0 1.0Q4945.0 2.0 4920.0 2.0Q4895.0 2.0 4871.5 1.0Q4848.0 0.0 4831.0 0.0ZM5601.0 -12.0Q5540.0 -12.0 5499.0 15.5Q5458.0 43.0 5437.5 87.0Q5417.0 131.0 5417.0 180.0Q5417.0 241.0 5445.0 289.5Q5473.0 338.0 5521.0 366.5Q5569.0 395.0 5629.0 395.0Q5682.0 395.0 5710.5 368.5Q5739.0 342.0 5739.0 296.0Q5739.0 285.0 5737.0 279.5Q5735.0 274.0 5727.0 274.0H5678.0Q5683.0 324.0 5659.5 349.5Q5636.0 375.0 5595.0 375.0Q5536.0 375.0 5505.0 333.0Q5474.0 291.0 5474.0 218.0Q5474.0 161.0 5492.5 116.5Q5511.0 72.0 5547.0 46.0Q5583.0 20.0 5633.0 20.0Q5659.0 20.0 5686.0 28.0Q5713.0 36.0 5737.0 54.0Q5739.0 56.0 5742.5 51.5Q5746.0 47.0 5744.0 44.0Q5709.0 14.0 5673.5 1.0Q5638.0 -12.0 5601.0 -12.0ZM5461.0 273.0 5460.0 284.0 5690.0 289.0V274.0Z"/></g></svg>
