<svg xmlns="http://www.w3.org/2000/svg" viewBox="0 0 100 100" role="img" aria-label="Nine to Fine"><title>Nine to Fine</title><defs><linearGradient id="m" x1="0" y1="0" x2="0" y2="1"><stop offset="0" stop-color="#F5EEDD"/><stop offset="0.5" stop-color="#E7DBC4"/><stop offset="1" stop-color="#C2A870"/></linearGradient></defs><rect width="100" height="100" rx="22" fill="url(#m)"/><g transform="matrix(0.0692,0,0,-0.0692,9.74,71.08)"><path fill="#26221d" d="M122.1 114.4Q122.1 62.5 102.0 37.2Q82.0 12.0 38.0 12.0Q35.6 12.0 35.6 6.0Q35.6 0.0 38.0 0.0Q59.8 0.0 84.8 1.0Q109.7 2.0 136.4 2.0Q162.8 2.0 184.6 1.0Q206.5 0.0 226.8 0.0Q229.4 0.0 229.4 6.0Q229.4 12.0 226.8 12.0Q186.2 12.0 166.9 37.2Q147.7 62.5 147.7 114.4V541.3L616.7 -15.3Q618.7 -16.3 623.4 -15.8Q628.2 -15.3 628.2 -12.8V509.6Q628.2 561.5 648.2 587.3Q668.2 613.0 709.8 613.0Q710.0 613.0 710.2 613.0Q710.4 613.0 710.6 613.0Q745.4 613.0 762.6 607.5Q779.8 602.0 785.7 587.5Q791.5 573.0 791.5 544.0V81.0Q791.5 52.0 785.4 37.0Q779.4 22.0 761.5 17.0Q743.6 12.0 707.4 12.0Q705.0 12.0 705.0 6.0Q705.0 0.0 707.4 0.0Q732.3 0.0 764.1 1.0Q796.0 2.0 829.8 2.0Q877.8 2.0 916.2 1.0Q954.6 0.0 987.5 0.0Q990.1 0.0 990.1 6.0Q990.1 12.0 987.5 12.0Q937.6 12.0 912.4 18.0Q887.2 24.0 878.9 39.5Q870.6 55.0 870.6 85.0V301.7H960.3Q1017.1 301.7 1042.9 281.3Q1068.7 260.8 1068.7 218.0Q1068.7 215.6 1074.7 215.6Q1080.7 215.6 1080.7 218.0Q1080.7 244.4 1079.7 267.0Q1078.7 289.6 1078.7 313.0Q1078.7 331.9 1079.2 349.0Q1079.7 366.2 1079.7 397.4Q1079.7 399.4 1073.7 399.4Q1067.7 399.4 1067.7 397.4Q1067.7 361.3 1042.9 343.1Q1018.1 324.8 963.0 324.8H870.6V543.0Q870.6 576.6 886.0 589.0Q901.4 601.5 944.6 601.5H996.0Q1048.1 601.5 1080.0 572.9Q1112.0 544.3 1119.2 489.1Q1120.1 486.1 1125.4 486.6Q1130.7 487.0 1130.7 489.6L1128.7 616.0Q1128.7 625.0 1119.2 625.0H710.6Q710.4 625.0 710.2 625.0Q710.0 625.0 709.8 625.0Q689.5 625.0 665.1 623.5Q640.8 622.0 616.0 622.0Q589.6 622.0 567.8 623.5Q545.9 625.0 525.0 625.0Q523.0 625.0 523.0 619.0Q523.0 613.0 525.0 613.0Q565.6 613.0 584.4 587.3Q603.1 561.5 603.1 509.6V123.9L230.1 573.0Q206.7 602.0 201.0 613.5Q195.3 625.0 182.3 625.0Q171.8 625.0 151.9 624.0Q132.0 623.0 108.0 623.0Q92.2 623.0 72.9 624.0Q53.5 625.0 35.2 625.0Q32.6 625.0 32.6 619.0Q32.6 613.0 35.2 613.0Q59.6 613.0 85.5 598.5Q101.9 589.3 122.1 569.3Z"/></g></svg>
