<svg xmlns="http://www.w3.org/2000/svg" viewBox="0 0 1083.0 639.7" role="img" aria-label="Nine to Fine"><title>Nine to Fine</title><defs><linearGradient id="c" x1="0" y1="0" x2="0" y2="1"><stop offset="0" stop-color="#EFE6CE"/><stop offset="1" stop-color="#C6AC79"/></linearGradient></defs><g transform="matrix(1,0,0,-1,-38.4,625.0)"><path fill="url(#c)" d="M119.8 108.6Q119.8 57.2 102.3 34.6Q84.8 12.0 40.8 12.0Q38.6 12.0 38.6 6.0Q38.6 0.0 40.8 0.0Q61.6 0.0 84.9 1.0Q108.2 2.0 133.4 2.0Q159.0 2.0 180.1 1.0Q201.2 0.0 220.8 0.0Q223.6 0.0 223.6 6.0Q223.6 12.0 220.8 12.0Q179.4 12.0 161.4 34.6Q143.4 57.2 143.4 108.6V553.2Q147.7 548.3 152.2 543.0L612.4 -14.0Q614.4 -15.0 619.3 -14.5Q624.2 -14.0 624.2 -11.8V515.4Q624.2 566.8 642.8 589.9Q661.4 613.0 703.8 613.0Q706.0 613.0 706.5 616.9Q706.8 613.0 708.6 613.0Q745.2 613.0 763.4 607.5Q781.6 602.0 787.8 587.5Q794.0 573.0 794.0 544.0V81.0Q794.0 52.0 787.7 37.0Q781.4 22.0 762.9 17.0Q744.4 12.0 707.2 12.0Q705.0 12.0 705.0 6.0Q705.0 0.0 707.2 0.0Q731.6 0.0 762.4 1.0Q793.2 2.0 826.0 2.0Q871.8 2.0 909.7 1.0Q947.6 0.0 980.0 0.0Q982.8 0.0 982.8 6.0Q982.8 12.0 980.0 12.0Q927.8 12.0 901.6 18.0Q875.4 24.0 867.0 39.5Q858.6 55.0 858.6 85.0V303.0H956.8Q1012.6 303.0 1036.0 283.9Q1059.4 264.8 1059.4 220.8Q1059.4 218.6 1065.4 218.6Q1071.4 218.6 1071.4 220.8Q1071.4 246.4 1070.4 268.4Q1069.4 290.4 1069.4 313.0Q1069.4 331.4 1069.9 347.9Q1070.4 364.4 1070.4 394.4Q1070.4 396.4 1064.4 396.4Q1058.4 396.4 1058.4 394.4Q1058.4 357.8 1036.0 340.8Q1013.6 323.8 960.2 323.8H858.6V543.0Q858.6 579.6 874.6 591.8Q890.6 604.0 939.8 604.0H1001.0Q1048.6 604.0 1077.8 574.9Q1107.0 545.8 1110.2 492.4Q1110.6 489.4 1116.0 489.6Q1121.4 489.8 1121.4 492.6L1119.4 616.0Q1119.4 625.0 1110.2 625.0H708.6Q706.8 625.0 706.5 621.1Q706.0 625.0 703.8 625.0Q684.2 625.0 660.6 623.5Q637.0 622.0 613.2 622.0Q587.6 622.0 566.5 623.5Q545.4 625.0 525.0 625.0Q523.0 625.0 523.0 619.0Q523.0 613.0 525.0 613.0Q566.4 613.0 583.6 589.9Q600.8 566.8 600.8 515.4V100.9L215.6 573.0Q192.4 602.0 187.1 613.5Q181.8 625.0 168.8 625.0Q160.8 625.0 145.0 624.0Q129.2 623.0 110.8 623.0Q96.0 623.0 77.4 624.0Q58.8 625.0 41.2 625.0Q38.4 625.0 38.4 619.0Q38.4 613.0 41.2 613.0Q65.4 613.0 91.6 598.5Q104.7 591.3 119.8 577.4Z"/></g></svg>
